<svg width="71" height="23" viewBox="0 0 71 23" fill="none" xmlns="http://www.w3.org/2000/svg">
<path d="M10.3441 0C8.29822 0 6.2983 0.60667 4.59722 1.74329C2.89615 2.87992 1.57032 4.49544 0.787401 6.38558C0.00448187 8.27571 -0.200365 10.3556 0.198763 12.3621C0.597892 14.3687 1.58307 16.2118 3.02972 17.6585C4.47636 19.1051 6.3195 20.0903 8.32606 20.4894C10.3326 20.8885 12.4125 20.6837 14.3026 19.9008C16.1927 19.1179 17.8083 17.792 18.9449 16.091C20.0815 14.3899 20.6882 12.39 20.6882 10.3441C20.6882 7.60066 19.5984 4.96961 17.6585 3.02971C15.7186 1.08982 13.0875 0 10.3441 0V0ZM6.21589 6.27486H12.1723L11.2641 7.71973H5.30769L6.21589 6.27486ZM16.159 13.4992L15.2566 12.0543H12.6146L13.5228 10.6154H14.3543L13.3459 9.01127L10.5328 13.5051H3.03718L4.84179 10.6154H3.53846L4.44077 9.1705H10.2379L9.31204 10.6154H6.54615L5.64384 12.0543H9.73666L13.3459 6.27486L17.8633 13.4992H16.159Z" fill="#FF4747"/>
<path d="M70.6394 7.0357H67.6907L64.5415 13.5641L61.3333 7.0357H58.1782L62.8961 16.7016L59.7528 23H62.8135L70.6394 7.0357ZM51.6379 15.7285C51.2244 15.732 50.8144 15.6516 50.4328 15.4922C50.0512 15.3329 49.7059 15.0978 49.4176 14.8013C49.1293 14.5048 48.9042 14.1529 48.7557 13.767C48.6072 13.381 48.5384 12.969 48.5536 12.5557C48.5536 12.1506 48.6333 11.7496 48.7883 11.3754C48.9433 11.0011 49.1705 10.6611 49.4569 10.3747C49.7434 10.0883 50.0834 9.86112 50.4576 9.70611C50.8318 9.55111 51.2329 9.47133 51.6379 9.47133C52.043 9.47133 52.444 9.55111 52.8182 9.70611C53.1925 9.86112 53.5325 10.0883 53.8189 10.3747C54.1053 10.6611 54.3325 11.0011 54.4875 11.3754C54.6425 11.7496 54.7223 12.1506 54.7223 12.5557C54.7391 12.9694 54.6715 13.3822 54.5236 13.7689C54.3757 14.1556 54.1506 14.5081 53.862 14.805C53.5734 15.1019 53.2274 15.3369 52.845 15.4957C52.4626 15.6544 52.0519 15.7337 51.6379 15.7285ZM51.1484 18.2821C52.4602 18.2875 53.7251 17.7942 54.6869 16.9021V18.1229H57.5V7.0357H54.6987V8.25646C54.2457 7.80882 53.7088 7.45494 53.1188 7.2151C52.5288 6.97526 51.8973 6.85417 51.2605 6.85877C50.5255 6.87182 49.8003 7.02954 49.1262 7.32292C48.4522 7.6163 47.8425 8.0396 47.3321 8.56863C46.8217 9.09766 46.4205 9.72206 46.1515 10.4062C45.8824 11.0903 45.7508 11.8207 45.7641 12.5557C45.7413 13.2853 45.8625 14.0123 46.1208 14.695C46.3791 15.3778 46.7694 16.003 47.2695 16.5348C47.7695 17.0666 48.3695 17.4946 49.0351 17.7945C49.7006 18.0943 50.4188 18.26 51.1484 18.2821ZM44.3015 1.69263L41.4825 2.58314V18.0993H44.3015V1.69263ZM34.5236 9.83108H30.9851V5.30775H34.5236C35.9861 5.30775 37.0064 6.23954 37.0064 7.57236C37.0064 8.90518 35.9743 9.83108 34.5236 9.83108ZM27.9185 2.58314V18.0993H30.9733V12.4495H34.7477C37.779 12.4495 40.0554 10.3383 40.0554 7.478C40.0554 4.61775 37.8851 2.58314 34.8656 2.58314H27.9185Z" fill="#FF4747"/>
</svg>
