<svg width="225" height="50" viewBox="0 0 225 50" fill="none" xmlns="http://www.w3.org/2000/svg">
<g clip-path="url(#clip0)">
<path d="M22.4872 0C18.0396 0 13.692 1.31885 9.99398 3.78977C6.29598 6.2607 3.41375 9.77271 1.71174 13.8817C0.00974322 17.9907 -0.435578 22.5121 0.432095 26.8742C1.29977 31.2363 3.44146 35.2431 6.58635 38.388C9.73124 41.5329 13.7381 43.6746 18.1002 44.5423C22.4622 45.4099 26.9837 44.9646 31.0927 43.2626C35.2017 41.5606 38.7137 38.6784 41.1846 34.9804C43.6555 31.2824 44.9744 26.9347 44.9744 22.4872C44.9744 16.5232 42.6052 10.8035 38.388 6.58634C34.1709 2.36918 28.4512 0 22.4872 0V0ZM13.5128 13.641H26.4615L24.4872 16.7821H11.5385L13.5128 13.641ZM35.1282 29.3462L33.1667 26.2051H27.4231L29.3974 23.0769H31.2051L29.0128 19.5897L22.8974 29.359H6.60257L10.5257 23.0769H7.69232L9.65386 19.9359H22.2564L20.2436 23.0769H14.2308L12.2692 26.2051H21.1667L29.0128 13.641L38.8333 29.3462H35.1282Z" fill="#FF4747"/>
<path d="M173.449 5.61523C179.859 5.61523 184.487 9.85882 184.487 15.5383C184.487 21.2178 179.859 25.564 173.449 25.564H165.256V39.346H161.026V5.61523H173.449ZM180.295 15.5383C180.295 11.9229 177.603 9.42293 173.449 9.42293H165.256V21.8588H173.449C177.5 21.8588 180.295 19.2306 180.295 15.5383Z" fill="#FF4747"/>
<path d="M153.564 15.2948H147.154L140.308 29.4871L133.333 15.2948H126.474L136.731 36.3077L129.897 50H136.551L153.564 15.2948ZM112.256 34.1923C111.357 34.1998 110.466 34.0251 109.637 33.6786C108.807 33.3322 108.056 32.8213 107.43 32.1767C106.803 31.532 106.313 30.7671 105.991 29.9281C105.668 29.089 105.518 28.1932 105.551 27.2948C105.551 26.4143 105.725 25.5424 106.062 24.7289C106.399 23.9154 106.893 23.1762 107.515 22.5536C108.138 21.931 108.877 21.4371 109.69 21.1001C110.504 20.7631 111.376 20.5897 112.256 20.5897C113.137 20.5897 114.009 20.7631 114.822 21.1001C115.636 21.4371 116.375 21.931 116.998 22.5536C117.62 23.1762 118.114 23.9154 118.451 24.7289C118.788 25.5424 118.962 26.4143 118.962 27.2948C118.998 28.1942 118.851 29.0915 118.53 29.9322C118.208 30.7729 117.719 31.5393 117.091 32.1847C116.464 32.8301 115.712 33.3409 114.881 33.6861C114.049 34.0312 113.156 34.2035 112.256 34.1923ZM111.192 39.7435C114.044 39.7553 116.794 38.6829 118.885 36.7435V39.3974H125V15.2948H118.91V17.9487C117.925 16.9755 116.758 16.2062 115.476 15.6848C114.193 15.1634 112.82 14.9002 111.436 14.9102C109.838 14.9386 108.262 15.2814 106.796 15.9192C105.331 16.557 104.006 17.4772 102.896 18.6273C101.786 19.7774 100.914 21.1348 100.329 22.622C99.7445 24.1092 99.4583 25.697 99.4872 27.2948C99.4376 28.881 99.7011 30.4614 100.263 31.9456C100.824 33.4299 101.673 34.7889 102.76 35.945C103.847 37.1012 105.151 38.0317 106.598 38.6835C108.045 39.3352 109.606 39.6955 111.192 39.7435ZM96.3077 3.67944L90.1795 5.61534V39.3461H96.3077V3.67944ZM75.0513 21.3718H67.359V11.5384H75.0513C78.2308 11.5384 80.4487 13.5641 80.4487 16.4615C80.4487 19.3589 78.2051 21.3718 75.0513 21.3718ZM60.6923 5.61534V39.3461H67.3333V27.0641H75.5385C82.1282 27.0641 87.0769 22.4743 87.0769 16.2564C87.0769 10.0384 82.359 5.61534 75.7949 5.61534H60.6923Z" fill="#FF4747"/>
<path d="M212.487 36.1155C211.392 36.1065 210.31 35.8762 209.306 35.4384C208.302 35.0007 207.397 34.3646 206.645 33.5683C205.893 32.772 205.309 31.832 204.93 30.8046C204.55 29.7773 204.382 28.6838 204.436 27.5899C204.374 26.4943 204.536 25.3977 204.913 24.3671C205.29 23.3365 205.873 22.3936 206.626 21.5962C207.38 20.7987 208.289 20.1635 209.296 19.7293C210.304 19.2952 211.39 19.0712 212.487 19.0712C213.584 19.0712 214.67 19.2952 215.678 19.7293C216.686 20.1635 217.594 20.7987 218.348 21.5962C219.102 22.3936 219.685 23.3365 220.061 24.3671C220.438 25.3977 220.6 26.4943 220.538 27.5899C220.594 28.6842 220.427 29.7785 220.048 30.8066C219.669 31.8348 219.086 32.7756 218.334 33.5723C217.581 34.3689 216.675 35.005 215.671 35.4421C214.666 35.8792 213.583 36.1083 212.487 36.1155ZM212.487 15.3976C210.883 15.3693 209.29 15.6662 207.803 16.2702C206.317 16.8742 204.969 17.773 203.839 18.9122C202.709 20.0515 201.822 21.4076 201.23 22.899C200.639 24.3904 200.356 25.986 200.397 27.5899C200.345 29.2115 200.618 30.8272 201.203 32.3409C201.787 33.8546 202.669 35.2353 203.798 36.4011C204.926 37.5669 206.277 38.4939 207.771 39.127C209.265 39.76 210.871 40.0863 212.494 40.0863C214.116 40.0863 215.722 39.76 217.216 39.127C218.71 38.4939 220.061 37.5669 221.189 36.4011C222.318 35.2353 223.2 33.8546 223.785 32.3409C224.369 30.8272 224.643 29.2115 224.59 27.5899C224.631 25.9844 224.348 24.387 223.756 22.8941C223.164 21.4012 222.275 20.0436 221.144 18.9031C220.014 17.7627 218.664 16.863 217.176 16.2584C215.688 15.6537 214.093 15.3565 212.487 15.3847V15.3976ZM191.667 15.8591H187.615V39.3463H191.667V25.7052C191.664 24.7131 191.885 23.7332 192.312 22.8379C192.74 21.9426 193.363 21.155 194.136 20.5332C194.91 19.9115 195.813 19.4717 196.779 19.2462C197.745 19.0208 198.749 19.0155 199.718 19.2309V15.3847C198.054 15.0976 196.341 15.397 194.873 16.2317C193.405 17.0663 192.271 18.3847 191.667 19.9617V15.8591Z" fill="#FF4747"/>
</g>
<defs>
<clipPath id="clip0">
<rect width="224.59" height="50" fill="white"/>
</clipPath>
</defs>
</svg>
