<svg width="24" height="24" viewBox="0 0 24 24" fill="none" xmlns="http://www.w3.org/2000/svg">
<path d="M17.4 1C15.312 1 13.308 1.97112 12 3.50572C10.692 1.97112 8.688 1 6.6 1C2.904 1 0 3.90136 0 7.59401C0 12.1259 4.08 15.8185 10.26 21.4294L12 23L13.74 21.4174C19.92 15.8185 24 12.1259 24 7.59401C24 3.90136 21.096 1 17.4 1ZM12.12 19.643L12 19.7629L11.88 19.643C6.168 14.4757 2.4 11.0589 2.4 7.59401C2.4 5.19619 4.2 3.39782 6.6 3.39782C8.448 3.39782 10.248 4.58474 10.884 6.22725H13.128C13.752 4.58474 15.552 3.39782 17.4 3.39782C19.8 3.39782 21.6 5.19619 21.6 7.59401C21.6 11.0589 17.832 14.4757 12.12 19.643Z" fill="white"/>
</svg>
