<svg width="308" height="100" viewBox="0 0 308 100" fill="none" xmlns="http://www.w3.org/2000/svg">
<path fill-rule="evenodd" clip-rule="evenodd" d="M227.062 42.1944V16.5516C227.062 11.2852 225.711 7.21 223.011 4.326C220.31 1.442 216.415 0 211.328 0C206.24 0 202.346 1.442 199.645 4.326C196.944 7.21 195.593 11.2852 195.593 16.5516V51.1596C195.593 52.5399 195.686 53.8384 195.872 55.055C199.102 53.5192 202.465 51.987 205.957 50.4727V15.8933C205.957 11.5673 207.747 9.40435 211.328 9.40435C214.908 9.40435 216.698 11.5673 216.698 15.8933V46.0447C220.053 44.7321 223.508 43.4452 227.062 42.1944ZM264.786 31.479V16.5516C264.786 11.2852 263.435 7.21 260.734 4.326C258.033 1.442 254.139 0 249.051 0C243.964 0 240.069 1.442 237.368 4.326C234.667 7.21 233.317 11.2852 233.317 16.5516V40.0648C236.691 38.955 240.146 37.8808 243.681 36.8502V15.8933C243.681 11.5673 245.471 9.40435 249.051 9.40435C252.632 9.40435 254.422 11.5673 254.422 15.8933V33.9225C257.812 33.0624 261.267 32.2458 264.786 31.479ZM191.113 57.3665C184.675 60.5601 178.822 63.7379 173.588 66.7708H164.328V0.940433H174.692V57.3665H191.113ZM298.803 26.0191C295.703 26.3408 292.64 26.7063 289.615 27.1123L293.092 0.940433H302.608L298.803 26.0191ZM282.942 28.0822C279.664 28.5951 276.433 29.1547 273.25 29.7566L268.878 0.940433H279.336L282.942 28.0822ZM0 0.940433H14.7921L21.3873 48.0562H21.5757L28.1709 0.940433H42.963V66.7708H33.1644V16.9278H32.976L25.4386 66.7708H16.7707L9.23328 16.9278H9.04485V66.7708H0V0.940433ZM50.6969 0.940433H61.0608V66.7708H50.6969V0.940433ZM79.1866 0.940433H68.8227V66.7708H79.1866V37.1472H90.3042V66.7708H100.668V0.940433H90.3042V27.7428H79.1866V0.940433ZM116.395 0.940433H130.433L141.174 66.7708H130.81L128.926 53.6988V53.8869H117.149L115.264 66.7708H105.654L116.395 0.940433ZM127.701 44.9528L123.084 12.4137H122.896L118.374 44.9528H127.701ZM156.566 0.940433H146.202V66.7708H156.566V0.940433Z" fill="#1E262C"/>
<path fill-rule="evenodd" clip-rule="evenodd" d="M219.999 58.2676C201.769 65.2847 189.13 72.9033 182.191 78.4814C181.432 79.0917 180.256 78.3525 180.519 77.4144C182.106 71.7449 185.674 66.7846 190.808 63.9031C200.235 58.6126 210.338 54.2328 220.598 50.6253C220.156 52.5783 220.172 53.9452 220.306 54.6656C220.383 54.5559 220.464 54.448 220.547 54.3419C220.992 53.0524 222.183 51.2658 223.4 49.6604C254.385 39.2116 286.366 35.6575 305.132 35.2104C306.92 35.1678 307.719 37.3696 306.35 38.5205C304.796 39.8268 302.849 40.6059 300.826 40.7691C278.436 42.5751 259.002 46.2846 242.566 50.8481C237.888 49.2453 232.823 48.9127 230.81 48.9522C232.633 49.499 234.424 50.3862 235.78 51.1687C237.07 51.7659 238.437 52.8354 239.838 54.3326C241.185 55.9635 241.823 57.6654 241.823 59.5091C241.823 59.9346 241.681 60.8565 241.469 62.2038C241.256 63.5511 240.405 65.4658 238.916 67.8059C237.427 70.2169 235.867 72.4152 234.165 74.4716L233.668 75.1807C233.03 75.9608 232.392 76.6699 231.754 77.379C230.265 79.01 228.846 80.5701 227.499 82.0592C225.443 84.4702 223.599 86.3849 221.897 87.8031C220.691 88.8668 219.486 89.3632 218.351 89.3632C217.997 89.3632 217.571 89.2923 217.146 89.1504C215.586 88.5122 214.806 87.8031 214.806 86.9522C214.806 86.5976 215.018 86.1721 215.444 85.8176C215.798 85.463 216.366 85.3212 217.146 85.3212C217.19 85.3212 217.261 85.2941 217.359 85.2567C217.419 85.2335 217.49 85.2064 217.571 85.1794L217.997 84.9666C218.096 84.9172 218.16 84.8333 218.214 84.763C218.237 84.7324 218.259 84.7044 218.28 84.683L218.351 84.6121C218.351 84.5412 218.351 84.4702 218.28 84.3993C218.21 84.3284 218.139 84.3284 218.068 84.3284C217.571 84.1157 217.146 83.832 216.791 83.4775C216.437 83.1229 216.153 82.6265 216.082 81.8465C215.94 81.1374 215.869 80.3573 215.869 79.5064C215.869 76.8826 216.366 73.0534 217.288 68.1604C217.713 65.9622 217.997 64.7567 218.068 64.473L218.351 63.4802C218.564 62.9839 218.777 62.3457 218.989 61.7076L218.99 61.7074C219.072 61.4601 219.144 61.2128 219.213 60.9737C219.323 60.5959 219.427 60.2387 219.557 59.9346C219.638 59.745 219.709 59.5761 219.77 59.4319C219.868 59.1984 219.938 59.0295 219.982 58.9419C220.053 58.8 220.124 58.6582 220.124 58.5164C220.124 58.4674 220.09 58.3844 219.999 58.2676ZM282.058 85.8885C282.413 85.8885 282.696 85.8176 283.051 85.6757C283.335 85.6048 283.476 85.463 283.476 85.3212V85.1085C283.476 84.8957 283.405 84.683 283.193 84.5412C282.98 84.3993 282.838 84.1866 282.838 83.832C282.767 83.5484 282.767 83.2647 282.767 82.9102C282.767 81.7756 282.909 80.641 283.122 79.5064C283.902 74.188 284.469 71.0678 284.753 70.146C285.391 67.5222 285.746 65.6785 285.746 64.7567C285.746 64.1184 285.462 63.693 284.895 63.3384C284.256 63.0548 283.547 62.9129 282.696 62.9129C281.562 62.9129 280.853 63.693 280.64 65.1821L280.498 65.6785C280.144 67.0258 279.86 68.4441 279.789 69.8623L279.505 72.4152C278.938 77.0245 278.654 79.79 278.654 80.8537C278.654 81.7756 278.725 82.8393 278.867 83.9739C279.009 84.7539 279.434 85.2503 280.214 85.463C280.994 85.7467 281.562 85.8885 282.058 85.8885ZM286.88 58.8C287.164 58.7291 287.306 58.6582 287.306 58.4455C287.306 58.3746 287.306 58.2327 287.235 58.1618C287.164 58.0909 287.164 58.02 287.164 57.9491C287.128 57.9491 287.111 57.9491 287.102 57.9402C287.093 57.9314 287.093 57.9137 287.093 57.8783V57.8782C287.022 57.8073 287.022 57.5945 287.022 57.24C287.022 56.1054 287.235 55.0417 287.589 54.1198C287.731 53.5525 287.873 53.1271 288.086 52.7725C288.117 52.7103 288.134 52.6481 288.15 52.5919C288.17 52.5199 288.188 52.4578 288.228 52.4179C288.228 52.347 288.228 52.2761 288.298 52.1343C288.328 52.0755 288.357 52.0046 288.392 51.9216L288.392 51.9215C288.44 51.804 288.499 51.6622 288.582 51.4961V51.2833C289.22 49.4396 289.504 48.2341 289.504 47.6668C289.504 47.0286 289.22 46.4613 288.582 45.9649C287.944 45.4685 287.235 45.2558 286.384 45.2558C285.604 45.2558 285.036 45.6813 284.753 46.6031L284.54 47.1704C284.115 48.3759 283.902 49.2269 283.902 49.7942V50.0069C283.831 50.0778 283.831 50.0778 283.831 50.1487C283.831 50.2197 283.831 50.2197 283.76 50.2906C283.689 50.3615 283.689 50.6451 283.689 50.9996V50.9997C283.547 51.6379 283.476 52.2052 283.476 52.7725C283.335 53.5525 283.264 54.3326 283.264 55.1126C283.264 56.1763 283.335 56.8145 283.547 57.0981C283.689 57.3818 283.902 57.6654 284.186 57.8782C284.824 58.5164 285.604 58.8 286.384 58.8H286.88ZM274.882 93.547C274.811 93.9725 274.599 94.1852 274.173 94.2561C272.613 94.2561 271.691 93.4052 271.407 91.6324C271.337 91.2778 271.337 90.7105 271.337 89.8596C271.337 87.094 271.337 84.8248 271.407 82.9811L271.478 79.5773L270.982 78.3718C268.429 72.4861 266.16 67.8768 264.174 64.5439C263.82 66.4585 263.465 68.9405 263.111 71.9188C262.402 78.3718 262.047 82.5556 262.047 84.3284C262.047 84.7539 262.047 85.1085 262.118 85.3212C262.118 85.8176 261.905 86.0303 261.48 86.0303C260.912 86.0303 260.345 85.8885 259.778 85.5339C259.211 85.1794 258.785 84.7539 258.501 84.1157C258.227 83.4017 258.08 82.3474 258.028 81.0187C257.812 80.9668 257.605 80.9246 257.441 80.9246L256.165 81.1374C256.165 81.1728 256.165 81.1905 256.156 81.1994C256.147 81.2083 256.129 81.2083 256.094 81.2083C255.597 81.2792 255.314 81.421 255.314 81.5628C255.314 81.6666 255.352 81.8084 255.4 81.9881L255.4 81.9883L255.4 81.9886L255.4 81.9896C255.418 82.055 255.437 82.1255 255.456 82.201C255.81 83.5484 256.377 84.8248 257.299 86.0303C257.441 86.243 257.512 86.3849 257.512 86.4558C257.512 86.6685 257.299 86.8103 256.874 86.8813H256.661C255.81 86.8813 255.03 86.6685 254.321 86.1721C252.974 85.3921 252.123 84.3284 251.626 82.9811C251.484 82.6974 251.343 82.5556 251.13 82.5556C251.086 82.5556 251.015 82.5827 250.917 82.6201L250.917 82.6202C250.856 82.6433 250.786 82.6704 250.704 82.6974C250.066 82.9811 249.357 83.2647 248.648 83.4775C247.655 83.832 246.662 84.2575 245.67 84.7539C245.244 84.9666 244.819 85.1794 244.322 85.3212C244.216 85.3566 244.092 85.392 243.968 85.4274L243.968 85.4275L243.968 85.4275C243.844 85.463 243.72 85.4985 243.613 85.5339C243.4 85.6048 243.117 85.6757 242.904 85.6757C242.55 85.6757 242.195 85.5339 241.911 85.3212C241.843 85.2803 241.778 85.2394 241.714 85.1996L241.714 85.1996C241.445 85.0319 241.205 84.8821 240.919 84.8248C240.564 84.7539 240.28 84.683 239.926 84.4702C239.288 84.1866 238.933 83.6902 238.933 82.9811C239.004 81.9883 239.146 80.9955 239.359 80.0737C239.359 79.7191 239.429 79.2937 239.642 78.8682C239.784 78.4427 239.855 77.9463 239.926 77.4499L241.131 72.9116C241.202 72.6279 241.273 72.3443 241.344 71.9897L241.982 69.9332L242.049 69.7535C242.516 68.4846 242.914 67.4068 243.117 66.4585L243.4 65.7494C244.039 63.8348 244.535 62.6293 244.819 61.9911C245.102 61.3529 245.315 60.7148 245.528 60.0767L245.528 60.0764C245.741 59.4382 245.953 58.8709 246.166 58.3746C246.272 58.1264 246.379 57.8959 246.485 57.6654L246.485 57.6653C246.592 57.4349 246.698 57.2045 246.804 56.9563C246.946 56.4599 247.372 55.3962 248.152 53.6234C248.364 52.9852 248.648 52.347 248.932 51.7088C249.215 51.0706 249.641 50.787 250.279 50.787H250.421C251.981 50.9288 253.257 51.567 254.25 52.7016C254.392 52.9143 254.463 53.1271 254.534 53.3398L254.605 54.1907H254.463L254.534 56.5308L254.179 62.4165C254.108 63.1966 254.037 64.0475 254.037 64.8276L253.966 69.6496C253.966 70.7842 254.037 71.9188 254.179 73.0534V74.188L254.463 77.0954C254.534 77.4499 254.676 77.5918 255.03 77.5918C256.287 77.7632 257.268 78.2569 258.01 79.073C258.036 76.8588 258.169 73.0558 258.36 67.6641C258.714 63.4802 258.998 60.431 259.211 58.6582C259.352 57.3109 259.494 56.6018 259.565 56.4599H259.636C260.274 55.9635 260.912 55.6799 261.622 55.4672C263.749 55.4672 265.947 57.4527 268.287 61.4238C269.564 63.6221 270.769 65.8203 271.904 68.1604C271.975 66.9549 272.046 66.0331 272.117 65.5367C272.137 65.3973 272.162 65.2299 272.192 65.0361C272.267 64.54 272.369 63.8707 272.471 63.0548C273.464 54.3326 274.74 49.936 276.23 49.936C277.577 50.0778 278.711 50.716 279.491 51.8506C279.491 53.0561 279.137 56.1054 278.428 61.1401C276.584 74.2589 275.449 84.4702 275.024 91.6324C274.953 92.2706 274.882 92.9088 274.882 93.547ZM221.046 81.7047C220.975 81.4919 220.975 81.2792 220.975 80.9246C220.975 80.4992 221.046 79.6482 221.188 78.4427L221.33 77.0954C222.535 70.4296 224.308 63.8348 226.648 57.3818C227.074 56.1054 227.286 55.1126 227.286 54.4035C227.286 54.1907 227.357 54.0489 227.428 53.978C227.472 53.9342 227.543 53.9174 227.641 53.8943C227.701 53.88 227.772 53.8633 227.854 53.8362C229.343 53.2689 230.903 52.9852 232.534 52.9143C235.441 52.9852 237.001 53.5525 237.143 54.5453C237.179 55.0771 237.214 55.5026 237.241 55.8217L237.241 55.822L237.241 55.8224C237.267 56.1411 237.285 56.3536 237.285 56.4599C237.285 58.2327 236.647 60.2892 235.37 62.7711C233.881 65.5367 232.108 68.3732 229.981 71.1387C227.783 73.9752 225.868 76.3862 224.095 78.3718C223.807 78.6942 223.54 78.9942 223.293 79.2715L223.293 79.2716L223.292 79.2721L223.292 79.2724C222.018 80.7019 221.284 81.5265 221.046 81.7047ZM245.812 80.0028C245.781 80.0028 245.764 80.0028 245.749 79.9973C245.728 79.99 245.71 79.9726 245.67 79.9319C245.599 79.9319 245.599 79.9319 245.599 79.8609L246.095 78.4427C247.088 75.9608 247.797 73.6916 248.223 71.6351C248.293 71.0678 248.435 70.5714 248.719 70.0751C248.79 70.0042 248.861 69.7914 248.861 69.5078V70.0042C248.861 70.5714 248.932 71.0677 249.003 71.5641L249.003 71.5642L249.215 73.0534L249.641 75.819L249.712 76.1026C249.783 76.7408 249.854 77.379 250.066 78.0172L250.137 78.3009C250.137 78.5136 249.924 78.6554 249.428 78.7264C248.932 78.7973 247.726 79.2227 245.953 79.9319L245.812 80.0028ZM240.848 94.0434L242.195 93.7597C242.833 93.6179 244.039 93.1924 245.741 92.4833C248.932 91.2069 251.201 90.3559 252.619 89.9305C252.903 89.8596 253.186 89.7887 253.399 89.7177L253.966 89.5759C254.108 89.5759 254.25 89.5759 254.463 89.6468C254.605 89.7177 254.746 89.7887 254.959 89.7887C255.03 89.7887 255.172 89.7177 255.243 89.6468C255.314 89.5759 255.385 89.4341 255.385 89.3632L255.314 88.9377C255.101 88.1577 254.605 87.5195 253.825 87.0231C253.045 86.5267 252.194 86.314 251.272 86.314H251.13C251.059 86.314 250.988 86.314 250.846 86.3849C250.704 86.4558 250.563 86.4558 250.35 86.4558C249.003 86.5976 247.23 87.0231 245.031 87.6613L242.337 88.4413C240.989 88.7959 239.784 89.2214 238.578 89.8596C238.011 90.0723 237.728 90.4269 237.728 90.8523L237.798 91.2778C238.153 92.4124 238.933 93.2634 240.068 93.8306C240.28 93.9725 240.564 94.0434 240.848 94.0434ZM285.309 99.5745C285.309 99.8582 285.167 100 284.954 100C284.6 100 284.245 99.7873 283.749 99.3618C283.253 98.9363 282.969 98.369 282.969 97.6599C282.969 96.5962 283.82 95.3907 285.522 94.0434C286.798 92.9797 287.578 92.3415 287.862 92.1288L287.933 91.9869C287.903 91.9869 287.885 91.9869 287.87 91.9815C287.849 91.9741 287.832 91.9568 287.791 91.9161L287.791 91.916C287.72 91.916 287.649 91.8451 287.578 91.7742C287.507 91.7033 287.365 91.4905 287.295 91.2778C287.224 91.0651 287.153 90.7105 287.082 90.2141C287.082 88.5831 287.436 85.6048 288.146 81.421C289.422 73.9043 291.478 66.4585 294.315 59.1546C296.584 53.2689 298.428 49.7233 299.846 48.4469C299.988 48.3759 300.13 48.305 300.342 48.305C300.511 48.305 300.635 48.3494 300.785 48.4031C300.824 48.4173 300.865 48.4321 300.91 48.4469C302.541 49.2978 303.321 50.2906 303.321 51.4961C303.321 52.5598 302.824 54.1198 301.761 56.0345L300.768 58.2327C298.286 63.9766 296.371 69.0823 294.882 73.4079C293.393 77.5918 291.975 82.9811 290.557 89.505C290.557 89.5759 290.557 89.7177 290.486 89.9305C290.415 90.1432 290.344 90.4978 290.344 90.9232C290.344 90.9942 290.344 91.0651 290.415 91.0651H290.486C291.478 90.4269 293.748 89.4341 297.293 88.1577C299.137 87.5195 300.768 87.1649 302.115 87.1649C303.037 87.1649 304.03 87.3067 304.952 87.5904C305.874 87.874 306.583 88.725 307.079 90.1432L307.15 90.4978C307.15 90.7105 307.008 90.9232 306.725 91.0651C306.441 91.2069 305.874 91.3487 305.023 91.4905C303.959 91.7033 302.612 91.9869 300.91 92.4833L298.428 93.3343C294.811 94.5398 292.684 95.3198 292.046 95.6744C291.266 95.958 290.415 96.3126 289.351 96.809C286.656 98.1563 285.309 99.0072 285.309 99.4327V99.5745Z" fill="#F56C2D"/>
</svg>
