<svg width="136" height="50" viewBox="0 0 136 50" fill="none" xmlns="http://www.w3.org/2000/svg">
<path d="M17.835 0.0672681C18.1106 -0.0854492 18.5181 0.0280283 18.6128 0.345129C18.7149 0.607081 18.5383 0.846762 18.3936 1.04932C17.369 2.49696 16.6891 4.17897 16.3678 5.91931C16.1731 6.00203 16.1167 6.20565 16.1774 6.39761C16.2731 6.43261 16.3699 6.46336 16.4678 6.49306C18.4564 6.31913 20.4736 6.35519 22.4313 6.77198C25.9935 7.48678 29.3226 9.28333 31.8814 11.8519C34.4328 14.3941 36.2234 17.6881 36.948 21.2122C37.7513 25.0281 37.3023 29.0899 35.6957 32.6438C32.2889 39.901 26.5457 46.0394 19.5182 49.9305C19.2916 50.0355 18.9649 50.0397 18.8096 49.8149C18.6266 49.5795 18.7021 49.2443 18.883 49.0301C19.831 47.7119 20.4928 46.1964 20.8524 44.6162C20.9216 44.2885 21.0163 43.9565 20.9875 43.6193C20.8716 43.4687 20.68 43.5143 20.5173 43.5196C17.1062 43.86 13.5962 43.2523 10.5139 41.7506C7.21245 40.1651 4.41105 37.5731 2.5587 34.4223C0.842532 31.5238 -0.0597058 28.1482 0.00306777 24.7809C0.0147713 21.6905 0.860619 18.6256 2.35016 15.9202C5.8176 9.28439 11.2619 3.68476 17.835 0.0672681ZM17.6435 17.8005C15.6145 18.072 13.743 19.2598 12.6067 20.9524C11.8375 22.1148 11.3715 23.4956 11.381 24.8934C11.3236 26.7663 12.0726 28.6424 13.3706 29.9914C14.5048 31.2089 16.0806 32.0021 17.7329 32.2142C19.415 32.4359 21.1716 32.0435 22.5962 31.1219C24.0443 30.2056 25.1476 28.759 25.6413 27.1205C26.568 24.2761 25.4572 20.9439 23.0399 19.1866C21.5216 18.0349 19.531 17.5237 17.6435 17.8005Z" fill="#F15A23"/>
<path d="M82.7617 10.8391C84.0768 10.4679 85.5844 11.03 86.3185 12.1807C86.8537 12.975 86.9846 14.0091 86.7101 14.9211C86.3579 16.0782 85.3046 16.9966 84.0959 17.1546C82.9053 17.3487 81.6371 16.8163 80.9541 15.8226C80.2242 14.8098 80.172 13.3653 80.8253 12.3016C81.2477 11.5868 81.9563 11.048 82.7617 10.8391Z" fill="white"/>
<path d="M112.522 10.8158C114.006 10.4372 115.678 11.2549 116.26 12.6717C116.9 14.078 116.355 15.8915 115.024 16.6912C114.257 17.1886 113.279 17.3073 112.403 17.074C111.538 16.8396 110.793 16.2192 110.387 15.4249C109.917 14.498 109.926 13.3409 110.427 12.4278C110.853 11.6261 111.635 11.0247 112.522 10.8158Z" fill="white"/>
<path d="M51.5984 14.0494C53.8923 13.7874 56.2745 14.1173 58.3598 15.1258C60.2015 15.9997 61.7911 17.3996 62.8763 19.1219C64.8638 22.2389 65.0819 26.3707 63.4924 29.6976C62.5891 31.6066 61.107 33.2313 59.3014 34.33C55.9978 36.3514 51.7026 36.5826 48.1586 35.0565C46.0722 34.155 44.2698 32.5992 43.1133 30.6436C41.7812 28.4281 41.3248 25.7323 41.744 23.1912C42.1057 20.9524 43.1984 18.8345 44.8273 17.2501C46.6286 15.4504 49.0736 14.3389 51.5984 14.0494ZM52.2399 19.3478C51.0504 19.5122 49.9269 20.1051 49.13 21.0023C47.1542 23.1923 47.1914 26.8745 49.2108 29.0252C50.2695 30.1971 51.8835 30.8207 53.4582 30.7051C54.8158 30.6298 56.1415 30.0179 57.0384 28.9924C59.1259 26.6973 58.9493 22.7469 56.6405 20.664C55.4712 19.5886 53.8061 19.1145 52.2399 19.3478Z" fill="white"/>
<path d="M106.128 17.5576C106.32 17.4261 106.538 17.3424 106.753 17.2533C106.986 17.3519 107.252 17.5078 107.236 17.7994C107.244 22.5316 107.237 27.2658 107.24 31.9979C107.205 33.8241 106.926 35.7363 105.888 37.2857C104.967 38.6772 103.467 39.6073 101.871 40.0389C99.8255 40.6052 97.6656 40.6126 95.5665 40.4037C93.6981 40.199 91.8586 39.7038 90.1573 38.9052C89.8605 38.8034 89.6892 38.446 89.8466 38.1628C90.3031 37.1998 90.7712 36.239 91.2457 35.2845C91.3734 34.9674 91.782 34.9207 92.049 35.0883C93.8833 36.0301 95.9793 36.4988 98.0412 36.3069C99.0765 36.2029 100.144 35.7989 100.784 34.943C101.483 34.0447 101.56 32.8569 101.523 31.7635C100.631 32.7583 99.5254 33.611 98.2093 33.9472C96.1687 34.4594 93.8982 34.067 92.1703 32.8601C90.7691 31.8876 89.8051 30.3626 89.4136 28.7166C89.0933 27.3581 89.0763 25.9274 89.3583 24.5614C89.7051 22.8805 90.6201 21.295 91.9969 20.2472C92.8895 19.5578 93.9578 19.0965 95.0717 18.9098C95.7335 18.7836 96.4102 18.8282 97.0794 18.8229C98.4636 18.8207 99.8478 18.826 101.232 18.8186C101.386 18.826 101.565 18.8027 101.691 18.9194C102.039 19.2121 102.336 19.5599 102.668 19.8717C103.819 19.0954 104.988 18.3477 106.128 17.5576ZM97.2369 23.4691C96.5815 23.6345 95.9729 24.0004 95.5409 24.5211C94.5568 25.7004 94.6025 27.6189 95.6867 28.7198C96.9826 30.0518 99.401 30.0561 100.686 28.706C101.825 27.533 101.816 25.4544 100.65 24.3016C99.7765 23.4245 98.4147 23.1711 97.2369 23.4691Z" fill="white"/>
<path d="M127.749 19.2969C128.815 18.8176 130.024 18.7539 131.169 18.9278C132.347 19.1124 133.487 19.6798 134.257 20.6024C134.954 21.419 135.348 22.4573 135.512 23.5083C135.653 24.3854 135.616 25.2773 135.62 26.1618C135.62 29.0984 135.62 32.035 135.62 34.9716C135.662 35.2887 135.427 35.6504 135.077 35.6037C133.508 35.6069 131.94 35.6037 130.372 35.6048C130.07 35.6451 129.785 35.3853 129.824 35.0788C129.817 32.3192 129.826 29.5587 129.82 26.7992C129.81 26.0175 129.651 25.1723 129.081 24.5954C128.103 23.6186 126.225 23.8413 125.526 25.0408C125.157 25.6251 125.087 26.3336 125.086 27.0091C125.088 29.6987 125.086 32.3892 125.088 35.0788C125.122 35.3354 124.914 35.6111 124.644 35.6005C123.119 35.6143 121.592 35.5963 120.066 35.609C119.856 35.5984 119.608 35.6355 119.452 35.4637C119.273 35.2771 119.297 34.996 119.286 34.7574C119.295 29.7729 119.283 24.7873 119.292 19.8017C119.255 19.4846 119.519 19.1887 119.842 19.2004C121.37 19.1813 122.9 19.1972 124.427 19.1919C124.693 19.175 125.029 19.2959 125.072 19.5928C125.109 20.2217 125.075 20.8538 125.086 21.4837C125.799 20.5738 126.677 19.7614 127.749 19.2969Z" fill="white"/>
<path d="M75.015 19.6596C75.7502 19.175 76.6365 18.9501 77.5111 18.9289C77.8122 18.9003 78.0856 19.175 78.0569 19.4751C78.0622 21.1401 78.0612 22.8052 78.0569 24.4702C78.0984 24.8372 77.726 25.0599 77.3972 25.0238C76.2046 25.0302 74.9501 25.4014 74.132 26.3071C73.235 27.3018 72.9329 28.6774 72.8765 29.9797C72.8627 31.6755 72.885 33.3724 72.868 35.0682C72.8935 35.3789 72.6041 35.6451 72.2977 35.6059C70.7305 35.6027 69.1643 35.6069 67.5971 35.6037C67.3013 35.643 67.0407 35.3747 67.0768 35.083C67.0736 29.9521 67.0715 24.8202 67.0779 19.6904C67.0619 19.3627 67.4077 19.1665 67.7024 19.194C69.2314 19.193 70.7592 19.1866 72.2881 19.1972C72.5786 19.1803 72.8712 19.4061 72.8627 19.7126C72.8935 20.6099 72.8627 21.5092 72.8744 22.4075C73.3446 21.3384 74.0075 20.297 75.015 19.6596Z" fill="white"/>
<path d="M81.2488 19.1994C82.7309 19.1803 84.214 19.2004 85.6961 19.1898C85.9195 19.1994 86.1908 19.1686 86.3558 19.3563C86.5154 19.4931 86.5132 19.7158 86.5196 19.9067C86.5185 24.9305 86.5185 29.9543 86.5196 34.9791C86.5558 35.275 86.3547 35.6313 86.0206 35.6027C84.4204 35.6059 82.8202 35.6069 81.2201 35.6027C80.8913 35.6313 80.6806 35.2686 80.7189 34.9748C80.7211 29.914 80.72 24.8531 80.7189 19.7922C80.6679 19.4783 80.9317 19.1898 81.2488 19.1994Z" fill="white"/>
<path d="M110.832 19.21C112.38 19.1675 113.934 19.2047 115.484 19.1919C115.792 19.1548 116.187 19.3309 116.172 19.6872C116.183 24.8191 116.174 29.9521 116.176 35.0841C116.204 35.3471 115.99 35.6228 115.711 35.6006C114.109 35.609 112.506 35.6048 110.902 35.6027C110.661 35.6218 110.441 35.433 110.41 35.1975C110.349 34.8401 110.382 34.4753 110.378 34.1158C110.38 29.3423 110.378 24.5699 110.379 19.7964C110.354 19.525 110.549 19.2386 110.832 19.21Z" fill="white"/>
</svg>
