<svg width="272" height="100" viewBox="0 0 272 100" fill="none" xmlns="http://www.w3.org/2000/svg">
<path d="M35.67 0.134536C36.2212 -0.170898 37.0362 0.0560566 37.2255 0.690257C37.4298 1.21416 37.0766 1.69352 36.7872 2.09865C34.738 4.99391 33.3783 8.35793 32.7356 11.8386C32.3462 12.0041 32.2335 12.4113 32.3547 12.7952C32.5463 12.8652 32.7399 12.9267 32.9357 12.9861C36.9127 12.6383 40.9473 12.7104 44.8626 13.544C51.9869 14.9736 58.6452 18.5667 63.7628 23.7039C68.8656 28.7881 72.4468 35.3762 73.896 42.4245C75.5025 50.0561 74.6046 58.1798 71.3914 65.2875C64.5778 79.802 53.0913 92.0788 39.0364 99.861C38.5832 100.071 37.9299 100.079 37.6192 99.6298C37.2532 99.1589 37.4043 98.4887 37.766 98.0602C39.662 95.4237 40.9856 92.3927 41.7048 89.2323C41.8431 88.5769 42.0325 87.913 41.9751 87.2385C41.7431 86.9373 41.3601 87.0285 41.0345 87.0391C34.2124 87.72 27.1924 86.5046 21.0278 83.5012C14.4249 80.3302 8.8221 75.1463 5.11739 68.8446C1.68506 63.0477 -0.119412 56.2963 0.00613553 49.5619C0.0295426 43.3811 1.72124 37.2512 4.70032 31.8403C11.6352 18.5688 22.5238 7.36952 35.67 0.134536ZM35.287 35.601C31.2291 36.144 27.4861 38.5196 25.2135 41.9048C23.675 44.2295 22.7429 46.9912 22.7621 49.7867C22.6472 53.5325 24.1452 57.2847 26.7413 59.9827C29.0097 62.4177 32.1611 64.0043 35.4658 64.4285C38.83 64.8718 42.3432 64.087 45.1925 62.2438C48.0886 60.4112 50.2952 57.518 51.2826 54.241C53.136 48.5523 50.9144 41.8879 46.0798 38.3732C43.0433 36.0698 39.0619 35.0474 35.287 35.601Z" fill="#F15A23"/>
<path d="M165.523 21.6784C168.154 20.936 171.169 22.0602 172.637 24.3615C173.707 25.9502 173.969 28.0182 173.42 29.8424C172.716 32.1565 170.609 33.9933 168.192 34.3093C165.811 34.6975 163.274 33.6327 161.908 31.6453C160.448 29.6197 160.344 26.7308 161.651 24.6033C162.495 23.1737 163.913 22.0962 165.523 21.6784Z" fill="#1E262C"/>
<path d="M225.043 21.6316C228.012 20.8743 231.357 22.5097 232.521 25.3434C233.8 28.156 232.71 31.783 230.048 33.3823C228.514 34.3771 226.558 34.6146 224.805 34.148C223.075 33.6792 221.585 32.4384 220.775 30.8497C219.834 28.9959 219.851 26.6818 220.853 24.8556C221.707 23.2521 223.271 22.0494 225.043 21.6316Z" fill="#1E262C"/>
<path d="M103.197 28.0988C107.784 27.5749 112.549 28.2346 116.72 30.2517C120.403 31.9995 123.582 34.7993 125.753 38.2439C129.728 44.4778 130.164 52.7415 126.985 59.3953C125.178 63.2132 122.214 66.4627 118.603 68.6601C111.996 72.7029 103.405 73.1653 96.3171 70.1131C92.1443 68.3102 88.5396 65.1985 86.2265 61.2873C83.5624 56.8564 82.6495 51.4646 83.4879 46.3825C84.2114 41.9049 86.3968 37.6691 89.6546 34.5002C93.2572 30.9008 98.1471 28.6779 103.197 28.0988ZM104.48 38.6957C102.101 39.0245 99.8537 40.2102 98.2599 42.0046C94.3084 46.3846 94.3829 53.749 98.4216 58.0505C100.539 60.3943 103.767 61.6415 106.916 61.4103C109.632 61.2597 112.283 60.0358 114.077 57.9848C118.252 53.3948 117.898 45.4938 113.281 41.328C110.942 39.1772 107.612 38.2291 104.48 38.6957Z" fill="#1E262C"/>
<path d="M212.257 35.1151C212.64 34.8521 213.076 34.6845 213.506 34.5063C213.972 34.7036 214.504 35.0154 214.472 35.5987C214.489 45.0629 214.474 54.5314 214.48 63.9956C214.41 67.6481 213.853 71.4724 211.776 74.5713C209.933 77.3541 206.935 79.2143 203.743 80.0776C199.651 81.2103 195.331 81.2251 191.133 80.8072C187.396 80.3979 183.717 79.4073 180.315 77.8102C179.721 77.6065 179.378 76.8917 179.693 76.3254C180.606 74.3995 181.542 72.4778 182.491 70.5688C182.747 69.9346 183.564 69.8413 184.098 70.1764C187.766 72.0599 191.958 72.9975 196.082 72.6135C198.153 72.4057 200.287 71.5976 201.568 69.8858C202.966 68.0893 203.119 65.7137 203.045 63.5269C201.262 65.5164 199.051 67.2218 196.419 67.8942C192.337 68.9186 187.796 68.1338 184.341 65.7201C181.538 63.775 179.61 60.7249 178.827 57.433C178.187 54.7159 178.153 51.8546 178.716 49.1227C179.41 45.7608 181.24 42.5898 183.994 40.4941C185.779 39.1154 187.915 38.1928 190.143 37.8195C191.467 37.5671 192.82 37.6561 194.159 37.6455C196.927 37.6413 199.696 37.6519 202.464 37.6371C202.773 37.6519 203.13 37.6052 203.381 37.8386C204.077 38.424 204.673 39.1197 205.337 39.7433C207.637 38.1906 209.976 36.6953 212.257 35.1151ZM194.474 46.938C193.163 47.2688 191.946 48.0006 191.082 49.0421C189.113 51.4007 189.205 55.2377 191.373 57.4394C193.965 60.1035 198.802 60.1119 201.372 57.4118C203.649 55.0659 203.632 50.9086 201.3 48.603C199.553 46.8489 196.829 46.3419 194.474 46.938Z" fill="#1E262C"/>
<path d="M255.498 38.5937C257.63 37.635 260.048 37.5077 262.337 37.8556C264.695 38.2246 266.974 39.3594 268.515 41.2047C269.908 42.838 270.696 44.9145 271.023 47.0165C271.306 48.7706 271.232 50.5544 271.24 52.3234C271.24 58.1967 271.24 64.0699 271.24 69.9432C271.323 70.5774 270.853 71.3007 270.153 71.2073C267.016 71.2137 263.88 71.2073 260.743 71.2094C260.139 71.2901 259.571 70.7704 259.648 70.1574C259.635 64.6384 259.652 59.1172 259.639 53.5982C259.62 52.0349 259.303 50.3445 258.162 49.1906C256.207 47.2371 252.451 47.6825 251.053 50.0814C250.314 51.2502 250.174 52.667 250.172 54.0182C250.176 59.3972 250.172 64.7784 250.176 70.1574C250.244 70.6707 249.827 71.2222 249.289 71.201C246.237 71.2285 243.184 71.1925 240.132 71.2179C239.711 71.1967 239.215 71.271 238.905 70.9273C238.545 70.554 238.594 69.992 238.573 69.5147C238.59 59.5457 238.566 49.5745 238.583 39.6033C238.511 38.9691 239.039 38.3774 239.683 38.4007C242.739 38.3625 245.799 38.3943 248.855 38.3837C249.387 38.3498 250.057 38.5916 250.144 39.1855C250.219 40.4433 250.151 41.7074 250.172 42.9674C251.598 41.1475 253.353 39.5227 255.498 38.5937Z" fill="#1E262C"/>
<path d="M150.03 39.3191C151.5 38.3497 153.273 37.9001 155.022 37.8576C155.624 37.8004 156.171 38.3497 156.114 38.95C156.124 42.2801 156.122 45.6102 156.114 48.9402C156.197 49.6741 155.452 50.1196 154.794 50.0474C152.409 50.0602 149.9 50.8025 148.264 52.6139C146.47 54.6035 145.866 57.3545 145.753 59.9592C145.725 63.3508 145.77 66.7445 145.736 70.1361C145.787 70.7576 145.208 71.29 144.595 71.2115C141.461 71.2052 138.329 71.2136 135.194 71.2073C134.603 71.2857 134.081 70.7491 134.154 70.1658C134.147 59.9041 134.143 49.6402 134.156 39.3806C134.124 38.7252 134.815 38.3328 135.405 38.3879C138.463 38.3858 141.518 38.3731 144.576 38.3943C145.157 38.3603 145.742 38.8121 145.725 39.4251C145.787 41.2195 145.725 43.0182 145.749 44.8148C146.689 42.6767 148.015 40.5938 150.03 39.3191Z" fill="#1E262C"/>
<path d="M162.497 38.3985C165.462 38.3603 168.428 38.4006 171.392 38.3794C171.839 38.3985 172.382 38.337 172.711 38.7124C173.031 38.986 173.026 39.4314 173.039 39.8132C173.037 49.8608 173.037 59.9083 173.039 69.9579C173.111 70.5497 172.709 71.2624 172.041 71.2051C168.841 71.2115 165.64 71.2136 162.44 71.2051C161.782 71.2624 161.361 70.537 161.438 69.9494C161.442 59.8277 161.44 49.7059 161.438 39.5842C161.336 38.9563 161.863 38.3794 162.497 38.3985Z" fill="#1E262C"/>
<path d="M221.664 38.4198C224.76 38.335 227.867 38.4092 230.967 38.3838C231.585 38.3095 232.374 38.6616 232.344 39.3743C232.366 49.6382 232.348 59.9042 232.353 70.168C232.408 70.694 231.98 71.2455 231.423 71.201C228.218 71.2179 225.011 71.2095 221.805 71.2052C221.322 71.2434 220.881 70.8658 220.819 70.395C220.698 69.6802 220.764 68.9505 220.756 68.2315C220.76 58.6845 220.756 49.1397 220.758 39.5928C220.709 39.0498 221.098 38.4771 221.664 38.4198Z" fill="#1E262C"/>
</svg>
