<svg width="250" height="250" viewBox="0 0 250 250" fill="none" xmlns="http://www.w3.org/2000/svg">
<path fill-rule="evenodd" clip-rule="evenodd" d="M189.116 87.3109C195.831 98.6533 199.431 111.823 199.349 125H199.35C199.34 135.499 197.112 145.998 192.783 155.575C179.156 184.604 156.183 209.158 128.073 224.722C127.166 225.142 125.86 225.159 125.238 224.26C124.506 223.318 124.809 221.977 125.532 221.12C129.324 215.847 131.971 209.785 133.41 203.465C133.455 203.249 133.504 203.032 133.552 202.815C133.798 201.716 134.046 200.604 133.95 199.477C133.564 198.975 132.968 199.018 132.403 199.059C132.29 199.067 132.178 199.075 132.069 199.078C118.425 200.44 104.385 198.009 92.0557 192.002C78.8498 185.66 67.6442 175.293 60.2348 162.689C53.519 151.347 49.9192 138.177 50.0014 125H50C50.0105 114.501 52.2383 104.002 56.5676 94.4249C70.1948 65.3959 93.1678 40.8424 121.278 25.278C122.184 24.858 123.491 24.8411 124.112 25.7404C124.844 26.6821 124.542 28.0226 123.818 28.8795C120.026 34.1525 117.379 40.2145 115.941 46.5353C115.895 46.7514 115.847 46.968 115.798 47.1849C115.553 48.2845 115.304 49.3963 115.4 50.523C115.787 51.0248 116.383 50.982 116.947 50.9415L116.95 50.9413C117.062 50.9332 117.173 50.9253 117.281 50.9218C130.926 49.56 144.966 51.9908 157.295 57.9976C170.501 64.3397 181.706 74.7075 189.116 87.3109ZM95.4846 125H95.5146C95.4089 132.349 98.389 139.672 103.483 144.965C108.019 149.835 114.322 153.009 120.932 153.857C127.66 154.744 134.686 153.174 140.385 149.488C146.177 145.822 150.59 140.036 152.565 133.482C153.462 130.73 153.882 127.864 153.866 125H153.836C153.942 117.651 150.961 110.328 145.868 105.035C141.331 100.165 135.028 96.9915 128.419 96.143C121.69 95.2564 114.664 96.826 108.966 100.512C103.173 104.178 98.76 109.964 96.7853 116.518C95.8887 119.27 95.4689 122.136 95.4846 125Z" fill="#F15A23"/>
</svg>
